<svg width="32" height="32" viewBox="0 0 32 32" fill="none" xmlns="http://www.w3.org/2000/svg">
  <path d="M16 28S4 20 4 12C4 8 7 5 11 5C13.2 5 15 6 16 7.5C17 6 18.8 5 21 5C25 5 28 8 28 12C28 20 16 28 16 28Z" fill="#EF5350" opacity="0.15"/>
  <path d="M16 28S4 20 4 12C4 8 7 5 11 5C13.2 5 15 6 16 7.5C17 6 18.8 5 21 5C25 5 28 8 28 12C28 20 16 28 16 28Z" stroke="#EF5350" stroke-width="2" stroke-linejoin="round"/>
  <polyline points="6,16 12,16 14,12 16,20 18,14 20,16 26,16" stroke="#EF5350" stroke-width="2" stroke-linecap="round" stroke-linejoin="round" fill="none"/>
</svg>
