<svg width="32" height="32" viewBox="0 0 32 32" fill="none" xmlns="http://www.w3.org/2000/svg">
  <path d="M16 4C11.58 4 8 7.58 8 12V20L5 23V24H27V23L24 20V12C24 7.58 20.42 4 16 4Z" fill="#7C4DFF" opacity="0.15"/>
  <path d="M16 4C11.58 4 8 7.58 8 12V20L5 23V24H27V23L24 20V12C24 7.58 20.42 4 16 4Z" stroke="#7C4DFF" stroke-width="2" stroke-linejoin="round"/>
  <path d="M13 25C13 26.66 14.34 28 16 28C17.66 28 19 26.66 19 25" stroke="#7C4DFF" stroke-width="2" stroke-linecap="round"/>
  <circle cx="23" cy="6" r="4" fill="#FF5252"/>
</svg>
